HIERARCHY
ROOT hips
{
  OFFSET 0 10.6860622 2.3727825e-15
  CHANNELS 6 Xposition Yposition Zposition Yrotation Xrotation Zrotation
  JOINT leftUpperLeg
  {
    OFFSET 0.6642549969 -0.9402397400000004 0
    CHANNELS 3 Yrotation Xrotation Zrotation
    JOINT leftLowerLeg
    {
      OFFSET 0 -3.997221335632195 0
      CHANNELS 3 Yrotation Xrotation Zrotation
      JOINT leftFoot
      {
        OFFSET -0.13777839790000004 -4.6145792000000005 -0.22186036399999998
        CHANNELS 3 Yrotation Xrotation Zrotation
        JOINT leftToes
        {
          OFFSET -0.03777410834999995 -0.9130806927000008 0.85230013
          CHANNELS 3 Yrotation Xrotation Zrotation
          End Site
          {
            OFFSET -0.03777410834999995 -0.9130806927000008 0.85230013
          }
        }
      }
    }
  }
  JOINT rightUpperLeg
  {
    OFFSET -0.6642778626 -0.9402397400000004 0
    CHANNELS 3 Yrotation Xrotation Zrotation
    JOINT rightLowerLeg
    {
      OFFSET 0 -3.997221452859387 0
      CHANNELS 3 Yrotation Xrotation Zrotation
      JOINT rightFoot
      {
        OFFSET 0.1377926176 -4.6145792000000005 -0.22185782299999995
        CHANNELS 3 Yrotation Xrotation Zrotation
        JOINT rightToes
        {
          OFFSET 0.037780746850000047 -0.9130806927000008 0.85230167
          CHANNELS 3 Yrotation Xrotation Zrotation
          End Site
          {
            OFFSET 0.037780746850000047 -0.9130806927000008 0.85230167
          }
        }
      }
    }
  }
  JOINT spine
  {
    OFFSET 0 0.13988381660000015 0
    CHANNELS 3 Yrotation Xrotation Zrotation
    JOINT chest
    {
      OFFSET 0 0.6191039003973773 0
      CHANNELS 3 Yrotation Xrotation Zrotation
      JOINT upperChest
      {
        OFFSET 0 0.9855186130586943 0
        CHANNELS 3 Yrotation Xrotation Zrotation
        JOINT leftShoulder
        {
          OFFSET 0.1807663869 1.5087829790000005 0
          CHANNELS 3 Yrotation Xrotation Zrotation
          JOINT leftUpperArm
          {
            OFFSET 0.5985063006419806 0 0
            CHANNELS 3 Yrotation Xrotation Zrotation
            JOINT leftLowerArm
            {
              OFFSET 2.2993332369501065 0 0
              CHANNELS 3 Yrotation Xrotation Zrotation
              JOINT leftHand
              {
                OFFSET 2.395047042602395 0 0
                CHANNELS 3 Yrotation Xrotation Zrotation
                JOINT leftIndexProximal
                {
                  OFFSET 0.5766295810000004 0.04556643899499946 0.17265095988184
                  CHANNELS 3 Yrotation Xrotation Zrotation
                  JOINT leftIndexIntermediate
                  {
                    OFFSET 0.2957229000000008 -0.019352197700001517 -0.007932640616999987
                    CHANNELS 3 Yrotation Xrotation Zrotation
                    JOINT leftIndexDistal
                    {
                      OFFSET 0.19008243099999922 -0.012484908149998475 -0.002786250786000012
                      CHANNELS 3 Yrotation Xrotation Zrotation
                      End Site
                      {
                        OFFSET 0.19008243099999922 -0.012484908149998475 -0.002786250786000012
                      }
                    }
                  }
                }
                JOINT leftMiddleProximal
                {
                  OFFSET 0.5834975091000001 0.0524350405149987 0.02204081888183999
                  CHANNELS 3 Yrotation Xrotation Zrotation
                  JOINT leftMiddleIntermediate
                  {
                    OFFSET 0.33880573540000003 -0.019871473270000717 -0.00000971183179999946
                    CHANNELS 3 Yrotation Xrotation Zrotation
                    JOINT leftMiddleDistal
                    {
                      OFFSET 0.20676022730000088 -0.012221336379999448 0.0001471936708000235
                      CHANNELS 3 Yrotation Xrotation Zrotation
                      End Site
                      {
                        OFFSET 0.20676022730000088 -0.012221336379999448 0.0001471936708000235
                      }
                    }
                  }
                }
                JOINT leftLittleProximal
                {
                  OFFSET 0.5344154683999995 -0.012880921405001189 -0.24414037221816004
                  CHANNELS 3 Yrotation Xrotation Zrotation
                  JOINT leftLittleIntermediate
                  {
                    OFFSET 0.21758961730000093 -0.011650919939999227 0.011893592810000034
                    CHANNELS 3 Yrotation Xrotation Zrotation
                    JOINT leftLittleDistal
                    {
                      OFFSET 0.1475273964999999 -0.008152365682999818 0.006001092492999946
                      CHANNELS 3 Yrotation Xrotation Zrotation
                      End Site
                      {
                        OFFSET 0.1475273964999999 -0.008152365682999818 0.006001092492999946
                      }
                    }
                  }
                }
                JOINT leftRingProximal
                {
                  OFFSET 0.5799399463000003 0.026911854694997794 -0.12150566991816003
                  CHANNELS 3 Yrotation Xrotation Zrotation
                  JOINT leftRingIntermediate
                  {
                    OFFSET 0.26167887460000006 -0.013480186499999602 0.010996293000000053
                    CHANNELS 3 Yrotation Xrotation Zrotation
                    JOINT leftRingDistal
                    {
                      OFFSET 0.17667108799999987 -0.008990287899999228 0.0055541023999999065
                      CHANNELS 3 Yrotation Xrotation Zrotation
                      End Site
                      {
                        OFFSET 0.17667108799999987 -0.008990287899999228 0.0055541023999999065
                      }
                    }
                  }
                }
                JOINT leftThumbProximal
                {
                  OFFSET 0.11018806699999972 -0.09448718900500053 0.17047963138184
                  CHANNELS 3 Yrotation Xrotation Zrotation
                  JOINT leftThumbIntermediate
                  {
                    OFFSET 0.31062601459999983 -0.08126270900000132 0.15443142000000007
                    CHANNELS 3 Yrotation Xrotation Zrotation
                    JOINT leftThumbDistal
                    {
                      OFFSET 0.21627175790000086 -0.08833193599999878 0.018771167799999988
                      CHANNELS 3 Yrotation Xrotation Zrotation
                      End Site
                      {
                        OFFSET 0.21627175790000086 -0.08833193599999878 0.018771167799999988
                      }
                    }
                  }
                }
              }
            }
          }
        }
        JOINT neck
        {
          OFFSET 0 1.5463305265074576 0
          CHANNELS 3 Yrotation Xrotation Zrotation
          JOINT head
          {
            OFFSET 0 0.8456443600000344 0
            CHANNELS 3 Yrotation Xrotation Zrotation
            JOINT leftEye
            {
              OFFSET 0.30408573140000006 0.5104519199999995 0.1276382305
              CHANNELS 3 Yrotation Xrotation Zrotation
              End Site
              {
                OFFSET 0.30408573140000006 0.5104519199999995 0.1276382305
              }
            }
            JOINT rightEye
            {
              OFFSET -0.30409491089999996 0.5104519199999995 0.1276379445
              CHANNELS 3 Yrotation Xrotation Zrotation
              End Site
              {
                OFFSET -0.30409491089999996 0.5104519199999995 0.1276379445
              }
            }
            JOINT jaw
            {
              OFFSET -3.155239131000001e-7 -0.11984121820000082 0.60178107
              CHANNELS 3 Yrotation Xrotation Zrotation
              End Site
              {
                OFFSET -3.155239131000001e-7 -0.11984121820000082 0.60178107
              }
            }
          }
        }
        JOINT rightShoulder
        {
          OFFSET -0.1807303465 1.5087829790000005 0
          CHANNELS 3 Yrotation Xrotation Zrotation
          JOINT rightUpperArm
          {
            OFFSET -0.5985063796536958 0 0
            CHANNELS 3 Yrotation Xrotation Zrotation
            JOINT rightLowerArm
            {
              OFFSET -2.2993322059002854 0 0
              CHANNELS 3 Yrotation Xrotation Zrotation
              JOINT rightHand
              {
                OFFSET -2.395045314457259 0 0
                CHANNELS 3 Yrotation Xrotation Zrotation
                JOINT rightIndexProximal
                {
                  OFFSET -0.5764487688300002 0.0441371204405987 0.17361932004999997
                  CHANNELS 3 Yrotation Xrotation Zrotation
                  JOINT rightIndexIntermediate
                  {
                    OFFSET -0.29573011380000047 -0.01934826376999843 -0.007698921482999974
                    CHANNELS 3 Yrotation Xrotation Zrotation
                    JOINT rightIndexDistal
                    {
                      OFFSET -0.19008373999999884 -0.012503266380000655 -0.0026365778999999897
                      CHANNELS 3 Yrotation Xrotation Zrotation
                      End Site
                      {
                        OFFSET -0.19008373999999884 -0.012503266380000655 -0.0026365778999999897
                      }
                    }
                  }
                }
                JOINT rightMiddleProximal
                {
                  OFFSET -0.5834852037300005 0.05211639405060153 0.02307162440000001
                  CHANNELS 3 Yrotation Xrotation Zrotation
                  JOINT rightMiddleIntermediate
                  {
                    OFFSET -0.33880114510000003 -0.019952774050000954 0.0002455003561999819
                    CHANNELS 3 Yrotation Xrotation Zrotation
                    JOINT rightMiddleDistal
                    {
                      OFFSET -0.20675694929999955 -0.012273788999999091 0.00030209124000002766
                      CHANNELS 3 Yrotation Xrotation Zrotation
                      End Site
                      {
                        OFFSET -0.20675694929999955 -0.012273788999999091 0.00030209124000002766
                      }
                    }
                  }
                }
                JOINT rightLittleProximal
                {
                  OFFSET -0.5346811737299992 -0.011214256288399227 -0.24363941305000003
                  CHANNELS 3 Yrotation Xrotation Zrotation
                  JOINT rightLittleIntermediate
                  {
                    OFFSET -0.21757715980000092 -0.011771559690000988 0.01201554387
                    CHANNELS 3 Yrotation Xrotation Zrotation
                    JOINT rightLittleDistal
                    {
                      OFFSET -0.1475201849000004 -0.00822055339600003 0.006082065407000015
                      CHANNELS 3 Yrotation Xrotation Zrotation
                      End Site
                      {
                        OFFSET -0.1475201849000004 -0.00822055339600003 0.006082065407000015
                      }
                    }
                  }
                }
                JOINT rightRingProximal
                {
                  OFFSET -0.5800810755299999 0.027657985680600072 -0.12066365025000003
                  CHANNELS 3 Yrotation Xrotation Zrotation
                  JOINT rightRingIntermediate
                  {
                    OFFSET -0.26166445029999974 -0.013623118409999302 0.011164098990000045
                    CHANNELS 3 Yrotation Xrotation Zrotation
                    JOINT rightRingDistal
                    {
                      OFFSET -0.17666387530000027 -0.009072900100000503 0.005668185599999959
                      CHANNELS 3 Yrotation Xrotation Zrotation
                      End Site
                      {
                        OFFSET -0.17666387530000027 -0.009072900100000503 0.005668185599999959
                      }
                    }
                  }
                }
                JOINT rightThumbProximal
                {
                  OFFSET -0.10997596379000074 -0.09577489355940072 0.16989765924999997
                  CHANNELS 3 Yrotation Xrotation Zrotation
                  JOINT rightThumbIntermediate
                  {
                    OFFSET -0.31036620999999986 -0.08229339117999834 0.15440884469999996
                    CHANNELS 3 Yrotation Xrotation Zrotation
                    JOINT rightThumbDistal
                    {
                      OFFSET -0.21631306399999906 -0.08825326400000111 0.018656797720000014
                      CHANNELS 3 Yrotation Xrotation Zrotation
                      End Site
                      {
                        OFFSET -0.21631306399999906 -0.08825326400000111 0.018656797720000014
                      }
                    }
                  }
                }
              }
            }
          }
        }
      }
    }
  }
}
MOTION
Frames: 9
Frame Time: 0.03333333333333333
0 11.682712981546562 0 0 0 0 0 0 -5.826343164929014 -0.3712483961610101 -3.6333298826370974 5.838118207697276 0 0 0 0 0 0 0 0 5.826343164929014 0.3712483961610101 -3.6333298826370974 -5.838118207697276 0 0 0 0 0 0 0 -4.610651315171937 0 0 3.0831277533083026 0 0 0 0 0 1.5275236235667615 0 0 0 0 0 0 0 0 0 0 0 0 0 0 0 0 0 0 0 0 0 0 0 0 0 0 0 0 0 0 0 0 0 0 0 0 0 0 0 0 0 0 0 0 0 0 0 0 0 0 0 0 0 0 0 0 1.5275236235667615 0 0 0 0 0 0 0 0 0 0 0 0 0 0 1.5275236235667615 0 0 0 0 0 0 0 0 0 0 0 0 0 0 0 0 0 0 0 0 0 0 0 0 0 0 0 0 0 0 0 0 0 0 0 0 0 0 0 0 0 0 0 0 0 0 0 0 0 0 0 0 0 0 0
0 0.05240090704979749 0 0 0 0 0.009912316865645459 -5.300109588874143 0.5813483131302488 0.5188334397894246 6.512592664279718 3.970797767670267 -3.0418545710111644 1.8981457742006471 0.40270248914163076 0 0 0 -0.013256583943914595 -5.300300369217028 -0.5847004487250509 -0.5224288103554354 6.512284168899254 -3.9746105000270577 3.0382937921808146 1.8982168898801577 -0.4062509831317174 0 0 0 -0.728162218025382 -4.12431123745839 -0.7940187507981992 0.7780664633969205 5.294327471914477 -0.8895094584380486 0 0 0 -41.37640627566645 0.3704718019334058 1.7525886801309636 -35.33780680519646 -30.045754126356268 8.093340240674827 -46.70988333177046 6.470721087467307 13.273658084588757 -44.17424792928105 -56.71564960854501 10.454961731435787 0 0 0 0 0 0 0 0 0 0 0 0 0 0 0 0 0 0 0 0 0 0 0 0 0 0 0 0 0 0 0 0 0 0 0 0 0 0 0 0 0 0 0 0 0 -11.144633710687355 10.361725709995945 -7.124815683315233 -0.0028610548528377536 -15.002605641105278 -9.001729926115893 0 0 0 0 0 0 0 0 0 41.37270844235007 0.371675888150813 -1.755901370867306 35.334644885436624 -30.0449295763505 -8.095930482701243 46.70592337869748 6.4716744233772525 -13.277128058204688 44.17065913537605 -56.71454817097007 -10.456676766022296 0 0 0 0 0 0 0 0 0 0 0 0 0 0 0 0 0 0 0 0 0 0 0 0 0 0 0 0 0 0 0 0 0 0 0 0 0 0 0 0 0 0 0 0 0
0 0.05240090704979749 0 0 0 0 0.009912316865645459 -5.300109588874143 0.5813483131302488 0.5188334397894246 6.512592664279718 3.970797767670267 -3.0418545710111644 1.8981457742006471 0.40270248914163076 0 0 0 -0.013256583943914595 -5.300300369217028 -0.5847004487250509 -0.5224288103554354 6.512284168899254 -3.9746105000270577 3.0382937921808146 1.8982168898801577 -0.4062509831317174 0 0 0 -0.728162218025382 -4.12431123745839 -0.7940187507981992 0.7780664633969205 5.294327471914477 -0.8895094584380486 0 0 0 -41.37640627566645 0.3704718019334058 1.7525886801309636 -35.33780680519646 -30.045754126356268 8.093340240674827 -46.70988333177046 6.470721087467307 13.273658084588757 -44.17424792928105 -56.71564960854501 10.454961731435787 0 0 0 0 0 0 0 0 0 0 0 0 0 0 0 0 0 0 0 0 0 0 0 0 0 0 0 0 0 0 0 0 0 0 0 0 0 0 0 0 0 0 0 0 0 -11.140380427170296 10.328836436432658 -7.2944359522301365 -0.28321524495378086 -15.045309461873767 -8.929039184958894 0 0 0 0 0 0 0 0 0 41.37270844235007 0.371675888150813 -1.755901370867306 35.334644885436624 -30.0449295763505 -8.095930482701243 46.70592337869748 6.4716744233772525 -13.277128058204688 44.17065913537605 -56.71455439369064 -10.456675236178171 0 0 0 0 0 0 0 0 0 0 0 0 0 0 0 0 0 0 0 0 0 0 0 0 0 0 0 0 0 0 0 0 0 0 0 0 0 0 0 0 0 0 0 0 0
0 0.05240090704979749 0 0 0 0 0.009912316865645459 -5.300109588874143 0.5813483131302488 0.5188334934946536 6.512592664279718 3.970796910414234 -3.0418545710111644 1.8981457742006471 0.40270248914163076 0 0 0 -0.013256583943914595 -5.300300369217028 -0.5847004487250509 -0.5224288103554354 6.512284168899254 -3.9746105000270577 3.0382937921808146 1.8982168898801577 -0.4062509831317174 0 0 0 -0.728162218025382 -4.12431123745839 -0.7940187507981992 0.7780664633969205 5.294328329346066 -0.889509511681963 0 0 0 -41.37640883834995 0.37047172189045324 1.75258857345695 -35.33780680519646 -30.045754126356268 8.093340240674827 -46.70988583352454 6.470721087467307 13.273658084588757 -44.17424792928105 -56.71564960854501 10.454958671641402 0 0 0 0 0 0 0 0 0 0 0 0 0 0 0 0 0 0 0 0 0 0 0 0 0 0 0 0 0 0 0 0 0 0 0 0 0 0 0 0 0 0 0 0 0 -11.136029452319859 10.295953206516208 -7.464070086587847 -0.5637898726812974 -15.087689359450623 -8.856091432425293 0 0 0 0 0 0 0 0 0 41.37270844235007 0.371675888150813 -1.755901370867306 35.334644885436624 -30.0449295763505 -8.095930482701243 46.70592337869748 6.4716744233772525 -13.277128058204688 44.17065913537605 -56.71454817097007 -10.456676766022296 0 0 0 0 0 0 0 0 0 0 0 0 0 0 0 0 0 0 0 0 0 0 0 0 0 0 0 0 0 0 0 0 0 0 0 0 0 0 0 0 0 0 0 0 0
0 0.05240090704979749 0 0 0 0 0.009912316865645459 -5.300109588874143 0.5813483131302488 0.5188334397894246 6.512592664279718 3.970797767670267 -3.0418545710111644 1.8981457742006471 0.40270248914163076 0 0 0 -0.013256583943914595 -5.300300369217028 -0.5847004487250509 -0.5224288103554354 6.512284168899254 -3.9746105000270577 3.0382948584828697 1.8982168898801577 -0.4062509564373131 0 0 0 -0.728162218025382 -4.124310381468034 -0.7940187507981992 0.7780664633969205 5.294327471914477 -0.8895094584380486 0 0 0 -41.37640627566645 0.3704718019334058 1.7525886801309636 -35.3378155237966 -30.045754126356268 8.093341705401357 -46.70988583352454 6.470721087467307 13.273658920880987 -44.17424792928105 -56.71564960854501 10.454961731435787 0 0 0 0 0 0 0 0 0 0 0 0 0 0 0 0 0 0 0 0 0 0 0 0 0 0 0 0 0 0 0 0 0 0 0 0 0 0 0 0 0 0 0 0 0 -11.131577045285214 10.26308034580446 -7.633711543887753 -0.844580345571239 -15.129732781455033 -8.782886615247289 0 0 0 0 0 0 0 0 0 41.37270844235007 0.371675888150813 -1.755901370867306 35.334644885436624 -30.0449295763505 -8.095930482701243 46.70592823718968 6.4716744233772525 -13.277128058204688 44.17065913537605 -56.71455439369064 -10.456675236178171 0 0 0 0 0 0 0 0 0 0 0 0 0 0 0 0 0 0 0 0 0 0 0 0 0 0 0 0 0 0 0 0 0 0 0 0 0 0 0 0 0 0 0 0 0
0 0.05240090704979749 0 0 0 0 0.009912316865645459 -5.300109588874143 0.5813483131302488 0.5188334397894246 6.512592664279718 3.970797767670267 -3.041855637309619 1.8981457742006471 0.4027024624472158 0 0 0 -0.013256583943914595 -5.300300369217028 -0.5847004487250509 -0.5224288103554354 6.512284168899254 -3.9746105000270577 3.0382937921808146 1.8982168898801577 -0.4062509831317174 0 0 0 -0.728162218025382 -4.124310381468034 -0.7940187507981992 0.7780664633969205 5.294328329346066 -0.889509511681963 0 0 0 -41.37640627566645 0.3704718019334058 1.7525886801309636 -35.3378155237966 -30.045754126356268 8.093341705401357 -46.70988333177046 6.470721946714726 13.273659757173212 -44.17424792928105 -56.71564960854501 10.454961731435787 0 0 0 0 0 0 0 0 0 0 0 0 0 0 0 0 0 0 0 0 0 0 0 0 0 0 0 0 0 0 0 0 0 0 0 0 0 0 0 0 0 0 0 0 0 -11.127028521350764 10.230214369977153 -7.803365870257021 -1.1255852970445355 -15.17144839654192 -8.709430466214766 0 0 0 0 0 0 0 0 0 41.37271326244932 0.3716758081078495 -1.755901370867306 35.334644885436624 -30.0449295763505 -8.095930482701243 46.70592337869748 6.4716744233772525 -13.277128058204688 44.17065913537605 -56.71454817097007 -10.456676766022296 0 0 0 0 0 0 0 0 0 0 0 0 0 0 0 0 0 0 0 0 0 0 0 0 0 0 0 0 0 0 0 0 0 0 0 0 0 0 0 0 0 0 0 0 0
0 0.05240090704979749 0 0 0 0 0.009912316865645459 -5.300109588874143 0.5813483131302488 0.5188335471998823 6.512593953258029 3.970797767670267 -3.0418545710111644 1.8981457742006471 0.40270248914163076 0 0 0 -0.013256583943914595 -5.300301226656904 -0.5847004487250509 -0.5224288103554354 6.512284168899254 -3.9746105000270577 3.0382937921808146 1.8982168898801577 -0.4062509831317174 0 0 0 -0.728162218025382 -4.124310381468034 -0.7940187507981992 0.7780664633969205 5.294327471914477 -0.8895094584380486 0 0 0 -41.37640627566645 0.3704718019334058 1.7525886801309636 -35.33780680519646 -30.045758071588104 8.093342193643533 -46.70988333177046 6.470721087467307 13.273658084588757 -44.17425239249469 -56.71564960854501 10.454961367160605 0 0 0 0 0 0 0 0 0 0 0 0 0 0 0 0 0 0 0 0 0 0 0 0 0 0 0 0 0 0 0 0 0 0 0 0 0 0 0 0 0 0 0 0 0 -11.12237946819312 10.197358735986366 -7.973027852513788 -1.4067992079591123 -15.212828954678644 -8.635720995203341 0 0 0 0 0 0 0 0 0 41.37270844235007 0.371675888150813 -1.755901370867306 35.334650385592695 -30.044937466748657 -8.095932503012309 46.70592823718968 6.471675282626293 -13.277131356395133 44.17065913537605 -56.71455439369064 -10.456675236178171 0 0 0 0 0 0 0 0 0 0 0 0 0 0 0 0 0 0 0 0 0 0 0 0 0 0 0 0 0 0 0 0 0 0 0 0 0 0 0 0 0 0 0 0 0
0 0.05240090704979749 0 0 0 0 0.009912316865645459 -5.300109588874143 0.5813472949730945 0.518833332378967 6.512591804960847 3.970797767670267 -3.0418545710111644 1.8981457742006471 0.40270248914163076 0 0 0 -0.013256583943914595 -5.300300369217028 -0.5846994305681947 -0.5224287029451067 6.51228330958091 -3.9746105000270577 3.0382937921808146 1.8982168898801577 -0.4062509831317174 0 0 0 -0.728162218025382 -4.12431123745839 -0.7940187507981992 0.7780664633969205 5.294327471914477 -0.8895094584380486 0 0 0 -41.37640627566645 0.3704718019334058 1.7525876133908243 -35.33780452329017 -30.045754126356268 8.093338708756551 -46.70987847329744 6.47072022821989 13.273656412004277 -44.17424792928105 -56.71564960854501 10.454961731435787 0 0 0 0 0 0 0 0 0 0 0 0 0 0 0 0 0 0 0 0 0 0 0 0 0 0 0 0 0 0 0 0 0 0 0 0 0 0 0 0 0 0 0 0 0 -11.117630944510648 10.164509960275907 -8.142696582388192 -1.6882183896665413 -15.253877820071585 -8.56176133111541 0 0 0 0 0 0 0 0 0 41.37270844235007 0.371675888150813 -1.755901370867306 35.334640322017435 -30.044925631151667 -8.095926997685572 46.70591852020524 6.4716735641282135 -13.277127221922846 44.17065696738687 -56.71454817097007 -10.456679461258213 0 0 0 0 0 0 0 0 0 0 0 0 0 0 0 0 0 0 0 0 0 0 0 0 0 0 0 0 0 0 0 0 0 0 0 0 0 0 0 0 0 0 0 0 0
0 0.05240090704979749 0 0 0 0 0.009912316865645459 -5.300108302714728 0.5813473485603131 0.5188334397894246 6.512592664279718 3.970797767670267 -3.0418545710111644 1.8981457742006471 0.40270248914163076 0 0 0 -0.013256583943914595 -5.300300369217028 -0.5846994305681947 -0.5224287029451067 6.51228330958091 -3.9746105000270577 3.0382937921808146 1.8982168898801577 -0.4062509831317174 0 0 0 -0.728162218025382 -4.12431123745839 -0.7940187507981992 0.7780664633969205 5.294327471914477 -0.8895094584380486 0 0 0 -41.37640627566645 0.3704718019334058 1.7525886801309636 -35.33780680519646 -30.045754126356268 8.093341217159184 -46.70988333177046 6.470721087467307 13.273658084588757 -44.17424148812016 -56.71564338564326 10.45496023793708 0 0 0 0 0 0 0 0 0 0 0 0 0 0 0 0 0 0 0 0 0 0 0 0 0 0 0 0 0 0 0 0 0 0 0 0 0 0 0 0 0 0 0 0 0 -11.112782976176975 10.131669764528578 -8.312371154692176 -1.9698404033430894 -15.294580657640623 -8.487556696958105 0 0 0 0 0 0 0 0 0 41.37270844235007 0.371675888150813 -1.755901370867306 35.3346426037269 -30.044925631151667 -8.095929927095295 46.70592337869748 6.4716744233772525 -13.277128058204688 44.17065913537605 -56.71454817097007 -10.456676766022296 0 0 0 0 0 0 0 0 0 0 0 0 0 0 0 0 0 0 0 0 0 0 0 0 0 0 0 0 0 0 0 0 0 0 0 0 0 0 0 0 0 0 0 0 0
